<?xml version="1.0" encoding="UTF-8" standalone="no"?>
<!-- Created with Inkscape (http://www.inkscape.org/) -->

<svg
   xmlns:dc="http://purl.org/dc/elements/1.1/"
   xmlns:cc="http://creativecommons.org/ns#"
   xmlns:rdf="http://www.w3.org/1999/02/22-rdf-syntax-ns#"
   xmlns:svg="http://www.w3.org/2000/svg"
   xmlns="http://www.w3.org/2000/svg"
   xmlns:sodipodi="http://sodipodi.sourceforge.net/DTD/sodipodi-0.dtd"
   xmlns:inkscape="http://www.inkscape.org/namespaces/inkscape"
   width="297mm"
   height="210mm"
   viewBox="0 0 297 210"
   version="1.1"
   id="svg8"
   inkscape:version="0.92.1 unknown"
   sodipodi:docname="passing_ondership.svg">
  <title
     id="title4714">passing ondership</title>
  <defs
     id="defs2" />
  <sodipodi:namedview
     id="base"
     pagecolor="#333333"
     bordercolor="#666666"
     borderopacity="1.0"
     inkscape:pageopacity="0"
     inkscape:pageshadow="2"
     inkscape:zoom="0.3955589"
     inkscape:cx="318.73353"
     inkscape:cy="821.39308"
     inkscape:document-units="mm"
     inkscape:current-layer="layer1"
     showgrid="false"
     inkscape:window-width="1920"
     inkscape:window-height="1118"
     inkscape:window-x="-2"
     inkscape:window-y="-3"
     inkscape:window-maximized="1" />
  <metadata
     id="metadata5">
    <rdf:RDF>
      <cc:Work
         rdf:about="">
        <dc:format>image/svg+xml</dc:format>
        <dc:type
           rdf:resource="http://purl.org/dc/dcmitype/StillImage" />
        <dc:title>passing ondership</dc:title>
        <cc:license
           rdf:resource="http://creativecommons.org/licenses/by-sa/4.0/" />
        <dc:date>2017-07-16</dc:date>
        <dc:creator>
          <cc:Agent>
            <dc:title>Chen Rotem Levy</dc:title>
          </cc:Agent>
        </dc:creator>
        <dc:subject>
          <rdf:Bag>
            <rdf:li>key</rdf:li>
            <rdf:li>hand-over</rdf:li>
            <rdf:li>ondership</rdf:li>
          </rdf:Bag>
        </dc:subject>
        <dc:contributor>
          <cc:Agent>
            <dc:title>Based on https://pixabay.com/en/keys-hands-own-buy-sell-home-1317392/  (cc-0)</dc:title>
          </cc:Agent>
        </dc:contributor>
      </cc:Work>
      <cc:License
         rdf:about="http://creativecommons.org/licenses/by-sa/4.0/">
        <cc:permits
           rdf:resource="http://creativecommons.org/ns#Reproduction" />
        <cc:permits
           rdf:resource="http://creativecommons.org/ns#Distribution" />
        <cc:requires
           rdf:resource="http://creativecommons.org/ns#Notice" />
        <cc:requires
           rdf:resource="http://creativecommons.org/ns#Attribution" />
        <cc:permits
           rdf:resource="http://creativecommons.org/ns#DerivativeWorks" />
        <cc:requires
           rdf:resource="http://creativecommons.org/ns#ShareAlike" />
      </cc:License>
    </rdf:RDF>
  </metadata>
  <g
     inkscape:label="Layer 1"
     inkscape:groupmode="layer"
     id="layer1"
     transform="translate(0,-87)">
    <rect
       style="opacity:1;vector-effect:none;fill:#333333;fill-opacity:1;stroke:none;stroke-width:2.00025272;stroke-linecap:round;stroke-linejoin:round;stroke-miterlimit:4;stroke-dasharray:none;stroke-dashoffset:0;stroke-opacity:1"
       id="rect4773"
       width="297.02765"
       height="210.41295"
       x="-8.9483564e-08"
       y="86.750748" />
    <path
       id="path4704"
       style="fill:#ffff00;stroke-width:0.0402089"
       d="m 128.14215,173.90381 c 1.05808,-1.31821 1.57646,-2.85026 1.50565,-4.44984 -0.1231,-2.78114 -1.99119,-5.20019 -4.81518,-6.23533 -1.30652,-0.4789 -2.94238,-0.59414 -4.36019,-0.30711 -2.70321,0.54723 -4.86749,2.42955 -5.64684,4.91119 -0.2068,0.65848 -0.25161,0.9913 -0.25345,1.88231 -0.001,0.93067 0.0484,1.2777 0.29463,2.03239 0.23969,0.7346 0.71302,1.63695 0.85867,1.63695 0.0391,0 0.25661,-0.0686 0.4835,-0.15266 0.57188,-0.21163 1.33642,-0.40869 1.87991,-0.48455 0.25196,-0.0352 0.68415,-0.11422 0.9604,-0.17566 2.17278,-0.48327 4.21828,-0.37104 6.17411,0.33874 0.8054,0.29231 1.65475,0.72311 2.2185,1.12528 0.14964,0.10671 0.31058,0.19511 0.35764,0.19635 0.06,0.001 0.16246,-0.0935 0.34265,-0.31806 z m -5.27167,2.75146 c 0.22355,-0.0224 0.47959,-0.0585 0.56897,-0.0801 l 0.1625,-0.0393 -0.0229,-0.20504 c -0.0527,-0.47115 -0.49091,-1.0696 -1.01064,-1.38019 -0.87762,-0.52445 -2.05178,-0.39952 -2.81069,0.29908 -0.37521,0.34542 -0.61522,0.82526 -0.46775,0.93518 0.0811,0.0604 0.93435,0.30341 1.31182,0.37357 0.70914,0.13182 1.55898,0.16808 2.26872,0.0968 z m -0.70279,1.92505 c 0.35186,-0.0765 0.61621,-0.21864 0.84998,-0.457 0.27251,-0.27787 0.40061,-0.48184 0.33857,-0.53908 -0.0302,-0.0279 -0.20329,-0.0266 -0.56373,0.004 -0.86516,0.0738 -1.90713,-0.006 -2.79653,-0.21357 -0.22141,-0.0517 -0.43082,-0.10381 -0.46536,-0.11564 -0.0345,-0.0118 -0.091,-0.004 -0.12557,0.0155 -0.10174,0.0601 0.097,0.3611 0.46255,0.70063 0.34935,0.32451 0.7498,0.53308 1.16991,0.60937 0.12663,0.023 0.2679,0.0494 0.31394,0.0587 0.11468,0.0232 0.58706,-0.0133 0.81624,-0.0632 z m -1.35534,35.19515 c -0.79362,-0.49096 -1.4679,-0.92038 -1.49838,-0.95427 -0.0455,-0.0506 -0.0592,-1.45832 -0.0763,-7.80957 l -0.0209,-7.74796 -0.70113,-0.0112 -0.70113,-0.0101 v -1.00613 c 0,-0.93653 -0.005,-1.00524 -0.0731,-0.99315 -0.0479,0.009 -0.11516,0.11598 -0.19529,0.31182 -0.11807,0.2886 -0.1269,0.29884 -0.25879,0.29884 -0.12784,0 -0.14234,0.0142 -0.22714,0.22209 -0.0498,0.12216 -1.04785,2.62068 -2.21783,5.55229 -3.00367,7.52633 -3.04631,7.6328 -3.06262,7.64785 -0.0427,0.0394 -2.82427,0.79162 -2.9273,0.79162 -0.0743,0 -0.15331,-0.0338 -0.20278,-0.087 -0.0446,-0.0478 -0.47722,-0.59095 -0.96141,-1.20702 -0.5562,-0.70768 -0.88074,-1.15432 -0.88141,-1.21301 -5e-4,-0.0511 1.09929,-2.84946 2.44414,-6.21856 1.34486,-3.36911 2.53879,-6.3603 2.65317,-6.64708 0.13031,-0.3267 0.19566,-0.54308 0.17499,-0.57938 -0.0182,-0.0318 -0.29019,-0.14436 -0.60457,-0.24999 -0.43583,-0.14643 -0.56725,-0.20606 -0.55334,-0.25106 0.01,-0.0325 0.56681,-1.43144 1.23727,-3.10885 0.67045,-1.67742 1.21903,-3.07366 1.21903,-3.10278 0,-0.0291 -0.16774,-0.22098 -0.37277,-0.42638 -0.62878,-0.62993 -0.97118,-1.05275 -1.35025,-1.66735 -0.82599,-1.33924 -1.21878,-2.71033 -1.21713,-4.24869 0.002,-1.85342 0.64617,-3.61043 1.8785,-5.12358 0.50693,-0.62247 1.38303,-1.39041 2.08458,-1.82724 0.17091,-0.10638 0.32335,-0.21229 0.33874,-0.23527 0.0154,-0.023 -0.0944,-0.26225 -0.24388,-0.5317 -0.64557,-1.16343 -0.95037,-2.32394 -0.95037,-3.61852 0,-3.88987 3.01834,-7.16122 7.19961,-7.8031 0.55826,-0.0857 1.63892,-0.11519 2.19756,-0.0599 2.01887,0.19956 3.8225,0.99237 5.23339,2.30043 1.23852,1.14822 2.0549,2.613 2.3684,4.2494 0.12485,0.65168 0.1363,1.90216 0.023,2.5106 -0.26047,1.39872 -0.86068,2.66985 -1.73948,3.68391 -0.11734,0.13548 -0.21347,0.26234 -0.21347,0.28189 0,0.0195 0.15806,0.19938 0.35123,0.39958 1.11971,1.16048 1.86185,2.43779 2.26286,3.89474 1.16081,4.21738 -1.00819,8.54616 -5.26564,10.50886 l -0.59248,0.27314 -0.0109,3.64027 -0.0109,3.64025 h -0.10198 c -0.0561,0 -0.11722,0.0218 -0.13581,0.0483 -0.0186,0.0266 -0.0433,3.53179 -0.0548,7.78939 l -0.0209,7.7411 -0.96275,0.67013 c -1.32759,0.92409 -1.61803,1.11744 -1.72472,1.14824 -0.0743,0.0214 -0.37243,-0.14671 -1.53518,-0.86604 z"
       inkscape:connector-curvature="0" />
    <path
       style="fill:#ffd5d5;stroke-width:0.14998183"
       d="m 183.7043,296.69493 c -0.0462,-0.21791 -0.65674,-4.86014 -1.35686,-10.31606 -1.07153,-8.35021 -1.23931,-9.94971 -1.06046,-10.10838 0.11686,-0.1037 0.72186,-0.32662 1.34443,-0.49544 0.92386,-0.25054 1.13198,-0.36069 1.13198,-0.59921 0,-0.16066 -0.81093,-2.76752 -1.80205,-5.79282 -0.99112,-3.02532 -1.8357,-5.6045 -1.87686,-5.73158 -0.0566,-0.17458 0.0881,-0.26344 0.592,-0.36368 0.63478,-0.12622 0.66598,-0.15681 0.64897,-0.63342 -0.0382,-1.07316 -2.11573,-5.54181 -3.403,-7.32001 -1.28235,-1.77142 -2.4135,-2.56656 -6.7544,-4.74807 -4.71334,-2.36869 -9.26248,-4.07007 -19.80243,-7.40616 -6.25553,-1.98 -10.34199,-3.34993 -12.60771,-4.22657 -2.46273,-0.95285 -3.87752,-1.93613 -8.39964,-5.83774 -5.08685,-4.38883 -5.33157,-4.549 -11.54667,-7.55655 -3.86818,-1.87187 -5.21319,-2.64222 -8.66542,-4.96307 -4.51163,-3.03302 -7.94979,-5.54626 -10.626719,-7.76792 -0.722637,-0.59974 -1.42206,-1.0548 -1.701602,-1.10708 -1.047567,-0.19601 -3.293772,-1.33887 -4.277623,-2.17645 l -0.988909,-0.84193 0.252275,-1.21997 c 0.139807,-0.67689 0.402171,-1.42187 0.589012,-1.67346 0.49279,-0.66363 1.622728,-1.30598 2.779581,-1.58014 1.350808,-0.3201 4.122335,-0.2152 5.776935,0.21873 1.72979,0.4536 3.8484,1.45718 4.88196,2.31257 0.84479,0.69911 0.9705,0.75338 2.02974,0.87595 3.11564,0.36058 4.94128,1.32804 6.98421,3.70116 0.38104,0.44263 0.43498,0.45722 2.26394,0.61273 4.48076,0.38091 8.10053,1.43333 10.85136,3.15491 0.72221,0.452 1.01059,0.50659 1.85408,0.35092 0.89519,-0.16517 0.59479,-0.50921 -1.11375,-1.2754 -3.74797,-1.68083 -6.62173,-3.89042 -7.71535,-5.93225 -0.54303,-1.01388 -0.59753,-1.22138 -0.59753,-2.27565 0,-1.4538 0.3893,-2.26282 1.63279,-3.39317 2.23278,-2.02963 5.33966,-2.62759 9.8431,-1.89446 5.90436,0.96117 10.08293,2.23134 12.89277,3.91901 0.63356,0.38054 2.96792,1.27908 7.0314,2.70657 l 6.08296,2.13691 3.3515,0.0923 c 9.70848,0.26754 16.66233,2.2235 22.59541,6.35554 1.76824,1.23149 4.53786,3.80575 5.96684,5.546 0.98997,1.20566 2.6297,3.58309 3.26994,4.74109 0.18413,0.33305 0.90117,1.17181 1.59344,1.86396 6.54903,6.5478 10.45261,12.04113 17.67316,24.87076 1.1547,2.05165 2.19854,3.7815 2.31966,3.84405 0.12331,0.0636 1.33416,-0.0847 2.75179,-0.33705 1.57491,-0.28039 2.5824,-0.39916 2.66603,-0.31428 0.074,0.0749 1.1719,3.00668 2.43992,6.51471 1.268,3.50807 2.36907,6.41456 2.44684,6.45891 0.0778,0.0444 0.52721,-0.0669 0.9988,-0.2473 0.8486,-0.32454 0.86035,-0.32505 1.1429,-0.0477 0.157,0.1541 3.14425,5.02876 6.63831,10.8325 3.49404,5.80374 7.26311,12.05936 8.37572,13.90135 1.1126,1.84201 2.0229,3.39844 2.0229,3.45878 0,0.0603 -13.80056,0.10984 -30.66789,0.10984 H 183.7882 Z"
       id="path4702"
       inkscape:connector-curvature="0" />
    <path
       id="path4674"
       style="fill:#d5d5ff;stroke-width:0.19153568"
       d="m 121.8716,152.90684 c 0.0646,-0.16505 0.11735,-0.70628 0.11735,-1.20275 0,-1.11246 0.60616,-3.49716 1.16922,-4.5999 0.23073,-0.45189 0.67676,-1.0874 0.99117,-1.41227 0.54601,-0.56416 0.57362,-0.67479 0.61521,-2.4662 0.053,-2.28341 0.55264,-3.52043 2.04845,-5.07197 0.53757,-0.5576 0.97739,-1.14199 0.97739,-1.29866 0,-0.15665 -0.35353,-0.44123 -0.78565,-0.63238 -1.243,-0.54988 -2.36548,-2.13707 -2.88293,-4.07654 -0.27294,-1.02293 -0.62587,-1.32477 -1.54904,-1.32477 -1.70967,0 -4.72485,-1.14814 -6.53381,-2.48796 -0.69946,-0.51809 -1.14168,-0.72219 -1.39425,-0.64354 -0.66022,0.20556 -2.30878,2.17988 -3.00372,3.59726 -0.94164,1.92057 -1.45194,4.00643 -1.58365,6.47319 -0.10741,2.01147 -0.0851,2.18196 0.52034,3.98385 0.59391,1.76744 0.71797,1.96941 2.03037,3.30529 1.61209,1.64091 2.35617,2.72688 3.76951,5.50152 0.55808,1.09557 1.05144,2.03068 1.09638,2.07807 0.0449,0.0474 0.62434,0.10705 1.28753,0.13246 0.66318,0.0255 1.42137,0.13069 1.68484,0.23381 0.72164,0.28248 1.29405,0.24693 1.42524,-0.0885 z M 0.93237005,160.54007 c 0,-34.69676 0.0182722,-36.69455 0.33840625,-36.96569 0.1861383,-0.15766 1.2086368,-0.75743 2.27224,-1.33281 11.1991407,-6.05857 22.8178147,-10.78645 37.4057287,-15.22113 2.935817,-0.89247 4.031239,-1.15174 4.263935,-1.00918 0.230303,0.1411 1.167992,-0.048 3.54425,-0.71497 2.856147,-0.80158 3.285987,-0.87797 3.704123,-0.65846 0.410722,0.21564 0.888056,0.15808 3.624379,-0.4371 6.052706,-1.31653 11.667667,-2.12664 18.911925,-2.72856 5.547471,-0.46094 21.857529,-0.45755 30.167473,0.006 10.12203,0.56494 12.86445,0.81625 14.79366,1.35558 2.53613,0.70903 4.62976,1.77666 5.97804,3.04847 l 1.14351,1.07867 1.27375,-0.11603 c 3.46912,-0.31598 11.53489,-0.48633 14.71376,-0.31077 5.34624,0.29528 10.37769,0.24844 11.92929,-0.11106 1.4371,-0.33297 4.71683,-0.27549 5.72446,0.10035 1.17045,0.43655 2.01818,1.95803 1.78581,3.20512 -0.30941,1.66056 -2.1513,3.62333 -4.57052,4.87045 -0.72483,0.37363 -1.36545,0.75486 -1.42357,0.84715 -0.21145,0.33564 0.51438,0.73598 4.47191,2.46651 2.21726,0.96954 5.55427,2.49619 7.41555,3.39255 2.81091,1.35366 3.63954,1.66734 4.8917,1.85176 1.51765,0.22352 3.97192,1.21965 4.08814,1.65924 0.0318,0.12038 0.2443,0.77376 0.4722,1.45199 0.66649,1.98359 0.50591,2.92478 -0.68428,4.01041 -1.24891,1.1392 -3.95572,1.99285 -6.93063,2.18576 -2.26742,0.14704 -3.54859,-0.17035 -6.63739,-1.6443 -2.05451,-0.98039 -2.53434,-1.1373 -3.48085,-1.13826 -2.61471,-0.002 -6.86858,-0.93729 -10.35859,-2.27588 -2.00925,-0.77066 -2.8488,-0.88385 -4.46727,-0.60223 -0.99815,0.17368 -1.06438,0.54506 -0.29325,1.64456 0.88898,1.26754 1.7791,3.23499 1.8865,4.16974 0.1885,1.64062 -0.93727,3.95864 -4.33492,8.92581 -0.858,1.25435 -2.10202,3.21783 -2.76446,4.36327 -1.54016,2.66309 -2.37424,3.79338 -5.03676,6.82533 -2.69401,3.06783 -2.63379,2.97742 -3.11127,4.66953 -0.48345,1.71324 -1.315,3.44765 -2.09212,4.36364 -0.43109,0.50813 -0.79701,0.72444 -1.41113,0.83413 -0.45602,0.0815 -0.9034,0.13263 -0.99419,0.11373 -0.43234,-0.0901 -0.84344,0.22973 -1.06392,0.82788 -0.30708,0.83303 -1.36931,1.69741 -2.73533,2.22583 -0.90722,0.35097 -1.40191,0.40598 -3.36487,0.37425 -2.15493,-0.0348 -2.35491,-0.006 -3.14489,0.4478 -1.7063,0.98097 -3.34484,1.46758 -5.01452,1.48927 -1.49719,0.0194 -1.64552,-0.0189 -3.41544,-0.88074 -3.56524,-1.73619 -9.943461,-6.67514 -17.901076,-13.86161 -1.499045,-1.35378 -1.72507,-1.48716 -3.287474,-1.94009 -9.45648,-2.74131 -14.587645,-5.41719 -19.890063,-10.37258 -0.990648,-0.92579 -1.949313,-1.6654 -2.15873,-1.6654 -1.257808,0 -5.174512,1.66399 -5.296713,2.25027 -0.03565,0.17092 0.08244,1.16448 0.262347,2.20786 0.179914,1.04341 0.265005,1.96156 0.189094,2.04037 -0.07591,0.0788 -3.004894,1.87279 -6.508886,3.98663 -7.152079,4.31464 -6.585836,3.76237 -6.138198,5.98667 l 0.203371,1.0106 -15.495134,13.42092 c -8.522344,7.38148 -19.011159,16.46665 -23.3084738,20.18922 -4.29733,3.72258 -7.8869631,6.76833 -7.9769721,6.76833 -0.090024,0 -0.16366205,-16.50556 -0.16366205,-36.67904 z"
       inkscape:connector-curvature="0" />
  </g>
</svg>
